<svg version="1.1" id="Layer_1" xmlns="http://www.w3.org/2000/svg" xmlns:xlink="http://www.w3.org/1999/xlink" x="0px" y="0px"
viewBox="0 0 512.004 512.004" style="enable-background:new 0 0 512.004 512.004;" xml:space="preserve" >
<g><g><g>
<path fill="#37335F"  d="M468.975,0.002H341.7c-23.771,0-43.029,19.258-43.029,43.029v127.275c0,23.771,19.258,43.029,43.029,43.029h127.275c23.771,0,43.029-19.258,43.029-43.029V43.031C512.004,19.26,492.746,0.002,468.975,0.002z M469.338,170.306c0,0.207-0.155,0.363-0.363,0.363H341.7c-0.207,0-0.363-0.155-0.363-0.363V43.031c0-0.207,0.155-0.363,0.363-0.363h127.275c0.207,0,0.363,0.155,0.363,0.363V170.306z"/>
<path fill="#37335F"  d="M405.333,85.335c-11.776,0-21.333,9.557-21.333,21.333s9.557,21.333,21.333,21.333s21.333-9.557,21.333-21.333S417.109,85.335,405.333,85.335z"/>
<path fill="#37335F"  d="M399.032,265.921l-54.092,54.073h-28.602c2.373-6.678,3.666-13.859,3.666-21.333c0-35.249-28.751-64-64-64H152.796L128,226.403v-34.401c0-11.782-9.551-21.333-21.333-21.333H21.333C9.551,170.669,0,180.22,0,192.002v298.667c0,11.782,9.551,21.333,21.333,21.333h85.333c11.782,0,21.333-9.551,21.333-21.333v-21.342h127.066c60.397,0,119.538-17.22,170.512-49.648l3.637-2.917l60.331-60.352c24.927-24.895,24.927-65.568-0.003-90.498C464.612,240.981,423.94,240.981,399.032,265.921z M85.333,469.336H42.667v-256h42.667V469.336z M459.382,326.232l-58.654,58.674c-43.686,27.281-94.146,41.754-145.663,41.754H128.004V271.375l14.593,4.86c2.173,0.724,4.449,1.093,6.74,1.093h106.667c11.685,0,21.333,9.649,21.333,21.333c0,11.685-9.649,21.333-21.333,21.333c-28.444,0-28.444,42.667,0,42.667h97.771c5.657,0,11.082-2.247,15.082-6.246l60.352-60.331c8.257-8.267,21.899-8.267,30.163-0.003S467.637,317.988,459.382,326.232z"/>
</g></g></g>
</svg>