<svg width="35" height="30" viewBox="0 0 35 30" fill="none" xmlns="http://www.w3.org/2000/svg">
<path d="M33.2998 28.3C32.4998 29.2 31.3998 29.9 30.0998 29.9H3.99977C2.49977 29.9 1.19977 29.1 0.499772 27.9C-0.100229 27 -0.100229 25.8 0.299771 24.8L5.69977 11.8C6.39977 9.5 8.09977 7.6 10.3998 7.6L3.09977 25.1C2.69977 26.1 3.09977 26.8 4.79977 26.8H29.2998C30.9998 26.8 31.3998 25.9 30.9998 25.1L23.0998 7.4V7.3C20.3998 1.9 18.8998 3.9 18.0998 7.3V7.4C17.8998 8.4 17.6998 9.4 17.5998 10.5C17.2998 13.4 17.1998 16.2 17.1998 16.2H20.5998C21.0998 16.2 20.9998 16.8 20.7998 17.1L16.3998 23.4L15.1998 25.1L14.6998 25.9C14.4998 26.1 14.0998 26.1 13.8998 25.9L13.3998 25.1L11.9998 23.4L7.59977 17C7.49977 16.9 7.39977 16.7 7.39977 16.6C7.39977 16.4 7.49977 16.2 7.69977 16.2H10.4998C10.8998 14.1 11.2998 12.3 11.6998 10.7C11.9998 9.6 12.2998 8.5 12.5998 7.6C12.5998 7.5 12.5998 7.4 12.6998 7.4C17.4998 -7 24.0998 3.8 26.6998 9.1C27.3998 10.4 27.7998 11.4 27.7998 11.6L33.6998 24.6C34.2998 25.8 34.1998 27.2 33.2998 28.3Z" fill="#36335E"/>
</svg>
