<svg width="23" height="23" viewBox="0 0 23 23" fill="none" xmlns="http://www.w3.org/2000/svg">
<path fill-rule="evenodd" clip-rule="evenodd" d="M12.8535 6.67685L10.396 8.39758L20.1468 22.3232L22.6043 20.6024L12.8535 6.67685ZM12.6079 8.06958L11.7887 8.64316L13.5095 11.1006L14.3286 10.527L12.6079 8.06958Z" fill="#37335F"/>
<path fill-rule="evenodd" clip-rule="evenodd" d="M13 0H22V7H15.5211L13.3444 3.8914L13 4.13256V0ZM17 2H18V3H17V2ZM19 3H18V4H17V5H18V4H19V5H20V4H19V3ZM19 3V2H20V3H19Z" fill="#37335F"/>
<path fill-rule="evenodd" clip-rule="evenodd" d="M0 0H10V6.23318L7.61035 7.90643L9.7765 11H0V0ZM3 4H4V5H3V4ZM5 5H4V6H3V7H4V6H5V7H6V6H5V5ZM5 5V4H6V5H5Z" fill="#37335F"/>
<path fill-rule="evenodd" clip-rule="evenodd" d="M11.8771 14H0V22H15V18.4599L11.8771 14ZM7 17H8V18H7V17ZM9 18H8V19H7V20H8V19H9V20H10V19H9V18ZM9 18V17H10V18H9Z" fill="#37335F"/>
</svg>
