<svg width="10" height="10" viewBox="0 0 10 10" fill="none" xmlns="http://www.w3.org/2000/svg">
<path d="M0 1C0 0.447715 0.447715 0 1 0H9C9.55228 0 10 0.447715 10 1C10 1.55228 9.55229 2 9 2H1C0.447716 2 0 1.55228 0 1Z" fill="#050038"/>
<path d="M0 5C0 4.44772 0.447715 4 1 4H9C9.55228 4 10 4.44772 10 5C10 5.55228 9.55229 6 9 6H1C0.447716 6 0 5.55228 0 5Z" fill="#050038"/>
<path d="M1 8C0.447715 8 0 8.44771 0 9C0 9.55229 0.447715 10 1 10H5C5.55228 10 6 9.55229 6 9C6 8.44771 5.55228 8 5 8H1Z" fill="#050038"/>
</svg>
