<?xml version="1.0" encoding="UTF-8" standalone="no"?>
<!DOCTYPE svg PUBLIC "-//W3C//DTD SVG 1.1//EN" "http://www.w3.org/Graphics/SVG/1.1/DTD/svg11.dtd">
<svg version="1.1" xmlns="http://www.w3.org/2000/svg" xmlns:xlink="http://www.w3.org/1999/xlink" preserveAspectRatio="xMidYMid meet" viewBox="0 0 640 640" width="640" height="640"><defs><path d="M551.45 76.61C558.04 76.61 563.39 81.96 563.39 88.55C563.39 183.52 563.39 456.48 563.39 551.45C563.39 558.04 558.04 563.39 551.45 563.39C456.48 563.39 183.52 563.39 88.55 563.39C81.96 563.39 76.61 558.04 76.61 551.45C76.61 456.48 76.61 183.52 76.61 88.55C76.61 81.96 81.96 76.61 88.55 76.61C183.52 76.61 456.48 76.61 551.45 76.61Z" id="aS43vyYgs"></path><mask id="maskd1wJMdMhmg" x="-27.39" y="-27.39" width="694.78" height="694.78" maskUnits="userSpaceOnUse"><rect x="-27.39" y="-27.39" width="694.78" height="694.78" fill="white"></rect><use xlink:href="#aS43vyYgs" opacity="1" fill="black"></use></mask><path d="M225.82 481C225.82 510.49 201.88 534.43 172.39 534.43C142.9 534.43 118.96 510.49 118.96 481C118.96 451.51 142.9 427.57 172.39 427.57C201.88 427.57 225.82 451.51 225.82 481Z" id="a4Nyg19AlT"></path><path d="M516.44 160.23C516.44 189.72 492.5 213.66 463.01 213.66C433.52 213.66 409.58 189.72 409.58 160.23C409.58 130.74 433.52 106.8 463.01 106.8C492.5 106.8 516.44 130.74 516.44 160.23Z" id="b1oXYbafFQ"></path></defs><g><g><g><g mask="url(#maskd1wJMdMhmg)"><use xlink:href="#aS43vyYgs" opacity="1" fill-opacity="0" stroke="#000000" stroke-width="104" stroke-opacity="1"></use></g></g><g><g><use xlink:href="#a4Nyg19AlT" opacity="1" fill-opacity="0" stroke="#000000" stroke-width="44" stroke-opacity="1"></use></g></g><g><g><use xlink:href="#b1oXYbafFQ" opacity="1" fill-opacity="0" stroke="#000000" stroke-width="44" stroke-opacity="1"></use></g></g></g></g></svg>