<svg width="1215" height="697" viewBox="0 0 1215 697" fill="none" xmlns="http://www.w3.org/2000/svg">
<rect width="1215" height="697" fill="white"/>
<rect x="629" y="34" width="137" height="105" rx="9" fill="#36335E"/>
<rect x="431" y="34" width="151" height="168" rx="9" fill="#36335E"/>
<rect x="431" y="248" width="229" height="121" rx="9" fill="#36335E"/>
<rect x="620" y="108" width="286.765" height="77.2349" rx="9" transform="rotate(56.7932 620 108)" fill="white"/>
<rect x="575.899" y="154.897" width="46.4152" height="258.7" rx="9" transform="rotate(-33.1597 575.899 154.897)" fill="#36335E"/>
<rect x="596" y="161.579" width="18.5884" height="43.1551" rx="3" transform="rotate(-34.6875 596 161.579)" fill="white"/>
<path d="M518 109L507 77L496 109L465 118L496 128L507 160L518 128L548 118L518 109Z" fill="white"/>
<path d="M729.181 81.8072L723.747 66L718.313 81.8072L703 86.253L718.313 91.1928L723.747 107L729.181 91.1928L744 86.253L729.181 81.8072Z" fill="white"/>
<path d="M596.843 315.434L589.819 295L582.795 315.434L563 321.181L582.795 327.566L589.819 348L596.843 327.566L616 321.181L596.843 315.434Z" fill="white"/>
<path d="M67.168 620.512C64.608 620.683 62.2187 620.085 60 618.72C57.2693 617.867 55.0507 616.331 53.344 614.112C51.808 611.723 51.04 609.077 51.04 606.176C51.04 600.715 51.4667 574.005 52.32 526.048C52.4907 518.197 52.2347 505.653 51.552 488.416C50.8693 471.52 50.784 458.379 51.296 448.992C51.4667 445.408 52.832 442.421 55.392 440.032C58.1227 437.643 61.1947 436.533 64.608 436.704H65.632C67.168 435.851 68.7893 435.339 70.496 435.168C78.3467 434.485 84.576 434.059 89.184 433.888C93.792 433.547 100.277 433.376 108.64 433.376C117.003 433.376 124.171 433.973 130.144 435.168C136.117 436.192 142.688 437.984 149.856 440.544C157.195 443.104 163.68 446.432 169.312 450.528C181.259 459.232 189.963 470.411 195.424 484.064C201.056 497.547 203.616 511.797 203.104 526.816C202.592 541.323 199.349 555.317 193.376 568.8C187.232 582.112 178.784 593.035 168.032 601.568C155.232 611.808 137.909 617.781 116.064 619.488C109.579 620 101.045 620.256 90.464 620.256C79.0293 620.256 71.264 620.341 67.168 620.512ZM90.464 594.656C100.533 594.656 108.384 594.4 114.016 593.888C129.547 592.693 141.749 588.597 150.624 581.6C158.133 575.627 164.107 567.691 168.544 557.792C173.152 547.723 175.627 537.056 175.968 525.792C176.48 514.528 174.773 504.117 170.848 494.56C166.752 484.832 160.779 477.152 152.928 471.52C146.613 466.912 139.104 463.584 130.4 461.536C121.525 459.488 112.907 458.635 104.544 458.976C96.1813 459.147 86.88 459.659 76.64 460.512C76.4693 465.461 76.64 474.421 77.152 487.392C77.8347 505.995 78.0907 519.051 77.92 526.56C77.92 531.68 77.8347 538.848 77.664 548.064C77.4933 557.109 77.3227 565.472 77.152 573.152C76.9813 580.832 76.896 588 76.896 594.656H90.464ZM297.272 618.208C274.744 623.669 256.739 619.147 243.256 604.64C232.504 593.547 225.848 579.296 223.288 561.888C221.411 548.235 223.032 535.264 228.152 522.976C234.296 507.275 244.024 495.669 257.336 488.16C260.067 486.624 263.48 485.515 267.576 484.832C267.747 484.832 268.941 484.747 271.16 484.576C272.013 484.405 272.696 484.235 273.208 484.064C275.768 483.552 278.328 483.808 280.888 484.832C281.571 484.832 283.192 484.917 285.752 485.088C288.312 485.088 290.019 485.173 290.872 485.344C291.725 485.344 293.176 485.515 295.224 485.856C297.443 486.027 299.235 486.283 300.6 486.624L305.464 488.416C307.512 489.099 309.475 489.952 311.352 490.976C313.229 492 315.277 493.195 317.496 494.56C328.589 502.069 336.269 512.651 340.536 526.304C344.803 539.787 345.912 550.709 343.864 559.072C342.328 568.288 339.597 576.907 335.672 584.928C331.747 592.779 326.285 599.776 319.288 605.92C312.461 612.064 305.123 616.16 297.272 618.208ZM289.336 591.584C296.675 590.56 302.904 586.805 308.024 580.32C313.315 573.664 316.728 566.667 318.264 559.328C319.971 551.989 319.373 543.968 316.472 535.264C313.741 526.389 309.304 519.989 303.16 516.064C301.283 514.699 299.747 513.76 298.552 513.248C297.357 512.565 295.907 512.053 294.2 511.712C292.664 511.2 291.384 510.944 290.36 510.944C289.507 510.944 287.544 510.859 284.472 510.688C281.4 510.517 278.669 510.347 276.28 510.176C275.768 510.176 275.171 510.091 274.488 509.92C272.611 510.091 271.587 510.176 271.416 510.176L269.624 510.688C262.115 514.784 256.312 521.355 252.216 530.4C248.291 539.275 247.181 548.491 248.888 558.048C250.765 569.653 254.947 578.443 261.432 584.416C268.429 590.901 277.731 593.291 289.336 591.584ZM597.532 608.736C597.361 605.664 597.105 602.848 596.764 600.288C596.593 597.557 596.423 595.595 596.252 594.4C596.252 593.035 596.167 591.925 595.996 591.072C595.996 590.048 595.996 588.939 595.996 587.744V573.152C595.996 570.421 596.081 565.643 596.252 558.816C596.593 551.819 596.679 545.931 596.508 541.152C596.508 536.373 596.081 531.851 595.228 527.584C594.204 521.611 592.412 517.344 589.852 514.784C587.292 512.053 583.367 510.688 578.076 510.688C566.3 510.859 554.524 518.027 542.748 532.192C543.26 537.312 543.516 547.211 543.516 561.888C543.516 572.64 543.772 587.659 544.284 606.944C544.455 610.357 543.26 613.344 540.7 615.904C538.311 618.464 535.324 619.829 531.74 620C528.327 620.171 525.34 619.061 522.78 616.672C520.22 614.112 518.855 611.04 518.684 607.456C518.172 588.171 517.916 572.981 517.916 561.888V549.088C517.916 548.235 517.831 546.443 517.66 543.712C517.66 540.981 517.575 539.019 517.404 537.824C517.404 536.459 517.233 534.752 516.892 532.704C516.721 530.485 516.465 528.608 516.124 527.072C515.953 525.365 515.612 523.744 515.1 522.208C513.735 517.429 511.857 514.101 509.468 512.224C506.908 510.176 503.068 509.408 497.948 509.92C492.316 510.432 487.452 511.968 483.356 514.528C479.431 517.088 475.42 521.184 471.324 526.816C470.471 527.84 469.532 528.779 468.508 529.632C469.191 563.765 469.191 589.792 468.508 607.712C468.337 611.296 466.972 614.283 464.412 616.672C461.852 619.061 458.78 620.171 455.196 620C451.612 619.829 448.625 618.464 446.236 615.904C443.847 613.344 442.737 610.272 442.908 606.688C443.249 587.744 443.42 575.627 443.42 570.336C443.42 564.875 443.164 552.501 442.652 533.216C442.311 513.76 442.14 501.301 442.14 495.84C442.14 493.28 443.335 490.72 445.724 488.16C448.284 485.6 451.271 484.32 454.684 484.32C458.097 484.32 461.169 485.429 463.9 487.648C466.631 489.696 467.911 493.621 467.74 499.424C475.42 490.379 484.807 485.344 495.9 484.32C507.676 483.296 517.489 485.941 525.34 492.256C529.436 495.499 533.105 500.021 536.348 505.824C546.929 492.512 560.839 485.344 578.076 484.32C590.705 484.149 600.86 488.075 608.54 496.096C614.513 503.093 618.524 512.053 620.572 522.976C621.425 528.096 621.937 533.728 622.108 539.872C622.279 545.845 622.193 552.672 621.852 560.352C621.681 567.861 621.596 572.128 621.596 573.152V587.232C621.596 588.085 621.596 588.939 621.596 589.792C621.767 590.645 621.852 591.669 621.852 592.864C622.023 593.888 622.193 595.68 622.364 598.24C622.535 600.8 622.791 603.616 623.132 606.688C623.303 610.272 622.193 613.429 619.804 616.16C617.585 618.72 614.684 620.085 611.1 620.256C607.687 620.597 604.615 619.659 601.884 617.44C599.324 615.051 597.873 612.149 597.532 608.736ZM725.058 615.904C718.914 618.293 711.917 619.659 704.066 620C696.386 620.341 689.218 619.488 682.562 617.44C675.906 615.221 670.018 611.893 664.898 607.456C656.023 600.117 650.306 590.987 647.746 580.064C645.186 569.141 645.101 559.328 647.49 550.624C649.879 541.92 653.463 533.472 658.242 525.28C663.191 516.917 668.482 509.92 674.114 504.288C679.917 498.485 686.573 493.621 694.082 489.696C701.591 485.771 709.442 483.893 717.634 484.064C725.826 484.064 734.445 486.283 743.49 490.72C744.855 491.403 746.306 492.427 747.842 493.792C749.549 495.157 750.999 496.352 752.194 497.376L755.522 500.704C756.546 501.728 757.058 502.325 757.058 502.496C759.789 504.885 761.239 507.957 761.41 511.712C763.629 521.952 765.079 532.704 765.762 543.968C766.445 555.232 766.615 565.813 766.274 575.712C766.103 585.611 766.274 596.107 766.786 607.2C766.957 610.613 765.847 613.6 763.458 616.16C761.069 618.72 758.082 620.085 754.498 620.256C750.914 620.427 747.842 619.317 745.282 616.928C742.722 614.539 741.357 611.637 741.186 608.224V604.384C736.066 609.675 730.69 613.515 725.058 615.904ZM713.538 592.864C716.098 592.181 718.146 591.499 719.682 590.816C721.218 590.133 723.095 589.109 725.314 587.744C727.703 586.379 730.178 584.672 732.738 582.624C735.298 580.576 737.602 578.016 739.65 574.944C739.991 574.603 740.418 574.261 740.93 573.92C740.93 550.88 739.479 532.363 736.578 518.368C736.066 517.685 735.469 517.088 734.786 516.576C734.274 515.893 733.847 515.381 733.506 515.04C733.335 514.699 732.994 514.443 732.482 514.272C732.141 513.931 731.714 513.589 731.202 513.248C723.01 508.811 714.391 508.725 705.346 512.992C696.301 517.088 688.365 524.853 681.538 536.288C674.711 547.893 671.298 558.048 671.298 566.752C671.469 575.285 674.797 582.368 681.282 588C685.207 591.243 690.071 593.291 695.874 594.144C701.677 594.997 707.565 594.571 713.538 592.864ZM857.002 672.48C847.103 673.333 837.546 672.224 828.33 669.152C819.285 666.08 811.775 660.704 805.802 653.024C803.583 650.123 801.706 646.539 800.17 642.272C798.805 638.005 798.975 634.251 800.682 631.008C802.389 627.936 804.863 625.888 808.106 624.864C811.519 623.84 814.762 624.181 817.834 625.888C821.077 627.595 823.21 630.069 824.234 633.312C824.575 634.677 825.002 636.469 825.514 638.688C826.026 641.077 827.903 643.381 831.146 645.6C838.826 648.331 847.274 649.525 856.49 649.184C864.853 648.843 871.253 647.051 875.69 643.808C880.127 640.736 882.943 637.152 884.138 633.056C885.845 627.253 887.21 618.037 888.234 605.408C881.749 612.235 871.935 616.331 858.794 617.696C847.53 618.208 837.375 616.672 828.33 613.088C819.455 609.333 812.373 604.043 807.082 597.216C801.962 590.389 798.207 582.795 795.818 574.432C793.429 566.411 792.575 556.341 793.258 544.224C794.623 525.451 801.962 510.347 815.274 498.912C830.122 487.136 848.042 482.955 869.034 486.368C876.714 488.928 882.773 492 887.21 495.584C887.381 488.757 890.623 484.576 896.938 483.04C901.034 482.699 904.277 483.637 906.666 485.856C909.226 488.075 910.762 490.891 911.274 494.304C913.151 515.125 914.261 540.555 914.602 570.592C914.773 587.659 914.261 601.909 913.066 613.344C911.701 630.411 907.69 643.125 901.034 651.488C894.378 660.021 887.722 665.397 881.066 667.616C874.41 670.005 866.389 671.627 857.002 672.48ZM857.002 591.584C863.317 591.755 868.181 590.987 871.594 589.28C881.493 586.208 887.21 578.101 888.746 564.96C889.599 554.891 889.173 545.248 887.466 536.032C886.271 530.229 882.773 525.195 876.97 520.928C873.557 518.197 869.205 516.405 863.914 515.552C850.261 513.163 839.765 515.211 832.426 521.696C825.429 527.328 821.418 535.605 820.394 546.528C819.541 560.864 822.357 572.043 828.842 580.064C835.498 587.915 844.885 591.755 857.002 591.584ZM946.896 607.712C946.555 594.912 946.555 575.285 946.896 548.832C947.408 522.379 947.664 505.056 947.664 496.864C947.664 493.28 948.859 490.293 951.248 487.904C953.808 485.344 956.88 484.064 960.464 484.064C964.048 484.064 967.035 485.344 969.424 487.904C971.984 490.293 973.264 493.28 973.264 496.864C973.264 505.056 973.008 522.293 972.496 548.576C972.155 574.859 972.155 594.4 972.496 607.2C972.496 610.784 971.301 613.856 968.912 616.416C966.523 618.976 963.536 620.256 959.952 620.256C956.368 620.256 953.296 619.061 950.736 616.672C948.176 614.283 946.896 611.296 946.896 607.712ZM970.704 439.776C973.605 442.677 975.056 446.261 975.056 450.528C975.056 454.795 973.605 458.379 970.704 461.28C967.803 464.181 964.219 465.632 959.952 465.632C955.685 465.632 952.101 464.181 949.2 461.28C946.299 458.379 944.848 454.795 944.848 450.528C944.848 446.261 946.299 442.677 949.2 439.776C952.101 436.875 955.685 435.424 959.952 435.424C964.389 435.253 967.973 436.704 970.704 439.776ZM1066.8 620.512C1057.07 620.683 1047.51 618.976 1038.13 615.392C1028.91 611.808 1021.32 606.603 1015.34 599.776C1009.2 592.608 1005.1 584.075 1003.06 574.176C1001.18 564.107 1001.09 554.549 1002.8 545.504C1004.68 536.459 1007.75 527.755 1012.02 519.392C1015.43 513.077 1019.53 507.445 1024.3 502.496C1029.08 497.376 1034.63 493.109 1040.94 489.696C1047.43 486.112 1054.26 484.235 1061.42 484.064C1068.76 483.723 1076.61 485.259 1084.98 488.672C1089.41 490.72 1093.94 493.963 1098.54 498.4L1106.74 506.592C1109.47 508.811 1111 511.712 1111.34 515.296C1111.69 518.88 1110.66 522.037 1108.27 524.768C1106.05 527.328 1103.15 528.779 1099.57 529.12C1095.98 529.461 1092.91 528.437 1090.35 526.048C1088.82 524.853 1087.02 523.232 1084.98 521.184L1080.62 516.832C1078.23 514.443 1076.27 512.907 1074.74 512.224C1067.06 508.811 1059.72 508.896 1052.72 512.48C1045.72 515.893 1039.75 522.208 1034.8 531.424C1029.68 540.981 1027.12 550.539 1027.12 560.096C1027.29 569.653 1029.85 577.248 1034.8 582.88C1037.87 586.464 1042.31 589.365 1048.11 591.584C1053.91 593.803 1060.06 594.912 1066.54 594.912C1079.69 594.571 1088.13 589.877 1091.89 580.832L1091.63 579.552V572.128C1091.8 568.544 1093.17 565.643 1095.73 563.424C1098.46 561.035 1101.62 559.925 1105.2 560.096C1108.78 560.267 1111.69 561.717 1113.9 564.448C1116.29 567.008 1117.4 570.08 1117.23 573.664V579.296C1117.4 583.563 1116.81 587.317 1115.44 590.56C1111.51 600.459 1105.03 607.883 1095.98 612.832C1087.11 617.781 1077.38 620.341 1066.8 620.512ZM1141.35 564.704C1140.84 553.44 1140.5 541.493 1140.33 528.864C1140.33 516.235 1140.42 501.899 1140.59 485.856C1140.93 469.643 1141.1 457.611 1141.1 449.76C1141.1 446.176 1142.29 443.189 1144.68 440.8C1147.24 438.24 1150.31 436.96 1153.9 436.96C1157.48 436.96 1160.47 438.24 1162.86 440.8C1165.42 443.189 1166.7 446.176 1166.7 449.76C1166.7 457.781 1166.53 469.728 1166.19 485.6C1166.02 501.301 1165.93 515.381 1165.93 527.84C1166.1 540.299 1166.44 552.245 1166.95 563.68C1167.12 567.093 1166.02 570.165 1163.63 572.896C1161.24 575.456 1158.25 576.821 1154.67 576.992C1151.25 577.163 1148.18 576.053 1145.45 573.664C1142.89 571.275 1141.52 568.288 1141.35 564.704ZM1160.81 599.008C1163.37 601.397 1164.65 604.384 1164.65 607.968C1164.65 611.552 1163.37 614.624 1160.81 617.184C1158.42 619.573 1155.43 620.768 1151.85 620.768C1148.27 620.768 1145.19 619.573 1142.63 617.184C1140.24 614.624 1139.05 611.552 1139.05 607.968C1139.05 604.384 1140.24 601.397 1142.63 599.008C1145.19 596.448 1148.27 595.168 1151.85 595.168C1155.43 595.168 1158.42 596.448 1160.81 599.008Z" fill="#36335E"/>
</svg>
